<mxfile host="65bd71144e">
    <diagram id="medical-order-control" name="医嘱质控活动图">
        <mxGraphModel dx="1422" dy="798" grid="1" gridSize="10" guides="1" tooltips="1" connect="1" arrows="1" fold="1" page="1" pageScale="1" pageWidth="827" pageHeight="1169" math="0" shadow="0">
            <root>
                <mxCell id="0"/>
                <mxCell id="1" parent="0"/>
                
                <!-- 泳道 -->
                <mxCell id="doctor_lane" value="医生" style="swimlane;horizontal=0;" vertex="1" parent="1">
                    <mxGeometry x="40" y="40" width="300" height="800" as="geometry"/>
                </mxCell>
                
                <mxCell id="system_lane" value="系统" style="swimlane;horizontal=0;" vertex="1" parent="1">
                    <mxGeometry x="340" y="40" width="300" height="800" as="geometry"/>
                </mxCell>

                <!-- 开始节点 -->
                <mxCell id="start" value="" style="ellipse;fillColor=#000000;" vertex="1" parent="doctor_lane">
                    <mxGeometry x="135" y="60" width="30" height="30" as="geometry"/>
                </mxCell>

                <!-- 医生活动 -->
                <mxCell id="act1" value="开具医嘱&#10;(用药/检验/检查/手术等)" style="rounded=1;" vertex="1" parent="doctor_lane">
                    <mxGeometry x="100" y="140" width="100" height="40" as="geometry"/>
                </mxCell>

                <mxCell id="act2" value="保存/提交医嘱" style="rounded=1;" vertex="1" parent="doctor_lane">
                    <mxGeometry x="100" y="220" width="100" height="40" as="geometry"/>
                </mxCell>

                <mxCell id="act3" value="查看质控结果" style="rounded=1;" vertex="1" parent="doctor_lane">
                    <mxGeometry x="100" y="380" width="100" height="40" as="geometry"/>
                </mxCell>

                <mxCell id="decision1" value="是否通过" style="rhombus;" vertex="1" parent="doctor_lane">
                    <mxGeometry x="110" y="460" width="80" height="60" as="geometry"/>
                </mxCell>

                <mxCell id="act4" value="修改医嘱" style="rounded=1;" vertex="1" parent="doctor_lane">
                    <mxGeometry x="20" y="560" width="100" height="40" as="geometry"/>
                </mxCell>

                <mxCell id="act5" value="填写强制通过理由" style="rounded=1;" vertex="1" parent="doctor_lane">
                    <mxGeometry x="180" y="560" width="100" height="40" as="geometry"/>
                </mxCell>

                <!-- 系统活动 -->
                <mxCell id="sys_act1" value="执行质控检查" style="rounded=1;" vertex="1" parent="system_lane">
                    <mxGeometry x="100" y="220" width="100" height="40" as="geometry"/>
                </mxCell>

                <mxCell id="sys_act2" value="分析质控级别&#10;(notice/warning/error)" style="rounded=1;" vertex="1" parent="system_lane">
                    <mxGeometry x="100" y="300" width="100" height="40" as="geometry"/>
                </mxCell>

                <mxCell id="sys_act3" value="生成质控报告" style="rounded=1;" vertex="1" parent="system_lane">
                    <mxGeometry x="100" y="380" width="100" height="40" as="geometry"/>
                </mxCell>

                <mxCell id="sys_act4" value="记录医嘱信息" style="rounded=1;" vertex="1" parent="system_lane">
                    <mxGeometry x="100" y="660" width="100" height="40" as="geometry"/>
                </mxCell>

                <!-- 结束节点 -->
                <mxCell id="end" value="" style="ellipse;fillColor=#000000;strokeColor=#ffffff;strokeWidth=2;" vertex="1" parent="system_lane">
                    <mxGeometry x="135" y="740" width="30" height="30" as="geometry"/>
                </mxCell>

                <!-- 连接线 -->
                <mxCell id="edge1" value="" style="endArrow=classic;html=1;" edge="1" parent="1" source="start" target="act1">
                    <mxGeometry relative="1" as="geometry"/>
                </mxCell>

                <mxCell id="edge2" value="" style="endArrow=classic;html=1;" edge="1" parent="1" source="act1" target="act2">
                    <mxGeometry relative="1" as="geometry"/>
                </mxCell>

                <mxCell id="edge3" value="" style="endArrow=classic;html=1;" edge="1" parent="1" source="act2" target="sys_act1">
                    <mxGeometry relative="1" as="geometry"/>
                </mxCell>

                <mxCell id="edge4" value="" style="endArrow=classic;html=1;" edge="1" parent="1" source="sys_act1" target="sys_act2">
                    <mxGeometry relative="1" as="geometry"/>
                </mxCell>

                <mxCell id="edge5" value="" style="endArrow=classic;html=1;" edge="1" parent="1" source="sys_act2" target="sys_act3">
                    <mxGeometry relative="1" as="geometry"/>
                </mxCell>

                <mxCell id="edge6" value="" style="endArrow=classic;html=1;" edge="1" parent="1" source="sys_act3" target="act3">
                    <mxGeometry relative="1" as="geometry"/>
                </mxCell>

                <mxCell id="edge7" value="" style="endArrow=classic;html=1;" edge="1" parent="1" source="act3" target="decision1">
                    <mxGeometry relative="1" as="geometry"/>
                </mxCell>

                <mxCell id="edge8" value="否" style="endArrow=classic;html=1;" edge="1" parent="1" source="decision1" target="act4">
                    <mxGeometry relative="1" as="geometry"/>
                </mxCell>

                <mxCell id="edge9" value="强制通过" style="endArrow=classic;html=1;" edge="1" parent="1" source="decision1" target="act5">
                    <mxGeometry relative="1" as="geometry"/>
                </mxCell>

                <mxCell id="edge10" value="" style="endArrow=classic;html=1;" edge="1" parent="1" source="act4" target="act1">
                    <mxGeometry relative="1" as="geometry">
                        <Array as="points">
                            <mxPoint x="70" y="160"/>
                        </Array>
                    </mxGeometry>
                </mxCell>

                <mxCell id="edge11" value="" style="endArrow=classic;html=1;" edge="1" parent="1" source="act5" target="sys_act4">
                    <mxGeometry relative="1" as="geometry"/>
                </mxCell>

                <mxCell id="edge12" value="" style="endArrow=classic;html=1;" edge="1" parent="1" source="sys_act4" target="end">
                    <mxGeometry relative="1" as="geometry"/>
                </mxCell>

            </root>
        </mxGraphModel>
    </diagram>
</mxfile>